<mxfile host="app.diagrams.net" agent="Mozilla/5.0 (Windows NT 10.0; Win64; x64) AppleWebKit/537.36 (KHTML, like Gecko) Chrome/130.0.0.0 Safari/537.36 Edg/130.0.0.0" version="24.8.3">
  <diagram name="Page-1" id="yE2F3Ip1tIxyjJf40jG2">
    <mxGraphModel dx="1042" dy="661" grid="1" gridSize="10" guides="1" tooltips="1" connect="1" arrows="1" fold="1" page="1" pageScale="1" pageWidth="827" pageHeight="1169" math="0" shadow="0">
      <root>
        <mxCell id="0" />
        <mxCell id="1" parent="0" />
        <mxCell id="87q-KHHyrbXiA257jzKi-3" value="" style="rounded=0;whiteSpace=wrap;html=1;" vertex="1" parent="1">
          <mxGeometry x="260" y="160" width="530" height="350" as="geometry" />
        </mxCell>
        <mxCell id="87q-KHHyrbXiA257jzKi-1" value="API" style="rounded=0;whiteSpace=wrap;html=1;" vertex="1" parent="1">
          <mxGeometry x="80" y="220" width="120" height="60" as="geometry" />
        </mxCell>
        <mxCell id="87q-KHHyrbXiA257jzKi-2" value="Database" style="rounded=0;whiteSpace=wrap;html=1;" vertex="1" parent="1">
          <mxGeometry x="80" y="310" width="120" height="60" as="geometry" />
        </mxCell>
        <mxCell id="87q-KHHyrbXiA257jzKi-9" value="" style="edgeStyle=orthogonalEdgeStyle;rounded=0;orthogonalLoop=1;jettySize=auto;html=1;" edge="1" parent="1" source="87q-KHHyrbXiA257jzKi-4" target="87q-KHHyrbXiA257jzKi-8">
          <mxGeometry relative="1" as="geometry" />
        </mxCell>
        <mxCell id="87q-KHHyrbXiA257jzKi-36" value="Listen" style="edgeLabel;html=1;align=center;verticalAlign=middle;resizable=0;points=[];" vertex="1" connectable="0" parent="87q-KHHyrbXiA257jzKi-9">
          <mxGeometry x="0.4" relative="1" as="geometry">
            <mxPoint as="offset" />
          </mxGeometry>
        </mxCell>
        <mxCell id="87q-KHHyrbXiA257jzKi-4" value="Bronze" style="shape=cylinder3;whiteSpace=wrap;html=1;boundedLbl=1;backgroundOutline=1;size=15;" vertex="1" parent="1">
          <mxGeometry x="350" y="390" width="60" height="80" as="geometry" />
        </mxCell>
        <mxCell id="87q-KHHyrbXiA257jzKi-5" style="edgeStyle=orthogonalEdgeStyle;rounded=0;orthogonalLoop=1;jettySize=auto;html=1;entryX=0;entryY=0;entryDx=0;entryDy=52.5;entryPerimeter=0;" edge="1" parent="1" source="87q-KHHyrbXiA257jzKi-1" target="87q-KHHyrbXiA257jzKi-4">
          <mxGeometry relative="1" as="geometry" />
        </mxCell>
        <mxCell id="87q-KHHyrbXiA257jzKi-12" value="streaming" style="edgeLabel;html=1;align=center;verticalAlign=middle;resizable=0;points=[];" vertex="1" connectable="0" parent="87q-KHHyrbXiA257jzKi-5">
          <mxGeometry x="-0.0222" relative="1" as="geometry">
            <mxPoint as="offset" />
          </mxGeometry>
        </mxCell>
        <mxCell id="87q-KHHyrbXiA257jzKi-7" style="edgeStyle=orthogonalEdgeStyle;rounded=0;orthogonalLoop=1;jettySize=auto;html=1;entryX=0;entryY=0;entryDx=0;entryDy=52.5;entryPerimeter=0;" edge="1" parent="1" source="87q-KHHyrbXiA257jzKi-2" target="87q-KHHyrbXiA257jzKi-4">
          <mxGeometry relative="1" as="geometry" />
        </mxCell>
        <mxCell id="87q-KHHyrbXiA257jzKi-13" value="streaming" style="edgeLabel;html=1;align=center;verticalAlign=middle;resizable=0;points=[];" vertex="1" connectable="0" parent="87q-KHHyrbXiA257jzKi-7">
          <mxGeometry x="-0.5477" y="2" relative="1" as="geometry">
            <mxPoint as="offset" />
          </mxGeometry>
        </mxCell>
        <mxCell id="87q-KHHyrbXiA257jzKi-11" value="" style="edgeStyle=orthogonalEdgeStyle;rounded=0;orthogonalLoop=1;jettySize=auto;html=1;" edge="1" parent="1" source="87q-KHHyrbXiA257jzKi-8" target="87q-KHHyrbXiA257jzKi-10">
          <mxGeometry relative="1" as="geometry" />
        </mxCell>
        <mxCell id="87q-KHHyrbXiA257jzKi-14" value="trigger" style="edgeLabel;html=1;align=center;verticalAlign=middle;resizable=0;points=[];" vertex="1" connectable="0" parent="87q-KHHyrbXiA257jzKi-11">
          <mxGeometry x="-0.5227" relative="1" as="geometry">
            <mxPoint as="offset" />
          </mxGeometry>
        </mxCell>
        <mxCell id="87q-KHHyrbXiA257jzKi-8" value="Function" style="whiteSpace=wrap;html=1;" vertex="1" parent="1">
          <mxGeometry x="325" y="280" width="110" height="30" as="geometry" />
        </mxCell>
        <mxCell id="87q-KHHyrbXiA257jzKi-16" value="" style="edgeStyle=orthogonalEdgeStyle;rounded=0;orthogonalLoop=1;jettySize=auto;html=1;" edge="1" parent="1" source="87q-KHHyrbXiA257jzKi-10" target="87q-KHHyrbXiA257jzKi-15">
          <mxGeometry relative="1" as="geometry" />
        </mxCell>
        <mxCell id="87q-KHHyrbXiA257jzKi-19" value="" style="edgeStyle=orthogonalEdgeStyle;rounded=0;orthogonalLoop=1;jettySize=auto;html=1;" edge="1" parent="1" source="87q-KHHyrbXiA257jzKi-10" target="87q-KHHyrbXiA257jzKi-15">
          <mxGeometry relative="1" as="geometry" />
        </mxCell>
        <mxCell id="87q-KHHyrbXiA257jzKi-23" value="streaming" style="edgeLabel;html=1;align=center;verticalAlign=middle;resizable=0;points=[];" vertex="1" connectable="0" parent="87q-KHHyrbXiA257jzKi-19">
          <mxGeometry x="0.06" y="-2" relative="1" as="geometry">
            <mxPoint as="offset" />
          </mxGeometry>
        </mxCell>
        <mxCell id="87q-KHHyrbXiA257jzKi-10" value="KRaft&lt;div&gt;2 Broker&lt;/div&gt;&lt;div&gt;(kafka)&lt;/div&gt;" style="whiteSpace=wrap;html=1;" vertex="1" parent="1">
          <mxGeometry x="420" y="170" width="120" height="60" as="geometry" />
        </mxCell>
        <mxCell id="87q-KHHyrbXiA257jzKi-15" value="Apache Spark" style="whiteSpace=wrap;html=1;" vertex="1" parent="1">
          <mxGeometry x="640" y="170" width="120" height="60" as="geometry" />
        </mxCell>
        <mxCell id="87q-KHHyrbXiA257jzKi-20" value="Apache Flink" style="rounded=0;whiteSpace=wrap;html=1;" vertex="1" parent="1">
          <mxGeometry x="640" y="290" width="120" height="60" as="geometry" />
        </mxCell>
        <mxCell id="87q-KHHyrbXiA257jzKi-21" value="" style="endArrow=none;dashed=1;html=1;dashPattern=1 3;strokeWidth=2;rounded=0;exitX=0.5;exitY=1;exitDx=0;exitDy=0;entryX=0.5;entryY=0;entryDx=0;entryDy=0;" edge="1" parent="1" source="87q-KHHyrbXiA257jzKi-15" target="87q-KHHyrbXiA257jzKi-20">
          <mxGeometry width="50" height="50" relative="1" as="geometry">
            <mxPoint x="390" y="370" as="sourcePoint" />
            <mxPoint x="440" y="320" as="targetPoint" />
          </mxGeometry>
        </mxCell>
        <mxCell id="87q-KHHyrbXiA257jzKi-22" value="Batch" style="edgeLabel;html=1;align=center;verticalAlign=middle;resizable=0;points=[];" vertex="1" connectable="0" parent="87q-KHHyrbXiA257jzKi-21">
          <mxGeometry x="-0.12" y="1" relative="1" as="geometry">
            <mxPoint as="offset" />
          </mxGeometry>
        </mxCell>
        <mxCell id="87q-KHHyrbXiA257jzKi-24" value="" style="endArrow=classic;html=1;rounded=0;exitX=1;exitY=0.5;exitDx=0;exitDy=0;entryX=0;entryY=0.627;entryDx=0;entryDy=0;entryPerimeter=0;" edge="1" parent="1" source="87q-KHHyrbXiA257jzKi-10" target="87q-KHHyrbXiA257jzKi-20">
          <mxGeometry width="50" height="50" relative="1" as="geometry">
            <mxPoint x="390" y="370" as="sourcePoint" />
            <mxPoint x="440" y="320" as="targetPoint" />
          </mxGeometry>
        </mxCell>
        <mxCell id="87q-KHHyrbXiA257jzKi-25" value="Silver" style="shape=cylinder3;whiteSpace=wrap;html=1;boundedLbl=1;backgroundOutline=1;size=15;" vertex="1" parent="1">
          <mxGeometry x="620" y="400" width="60" height="80" as="geometry" />
        </mxCell>
        <mxCell id="87q-KHHyrbXiA257jzKi-26" value="Gold" style="shape=cylinder3;whiteSpace=wrap;html=1;boundedLbl=1;backgroundOutline=1;size=15;" vertex="1" parent="1">
          <mxGeometry x="710" y="400" width="60" height="80" as="geometry" />
        </mxCell>
        <mxCell id="87q-KHHyrbXiA257jzKi-27" value="" style="endArrow=classic;html=1;rounded=0;exitX=0.5;exitY=0;exitDx=0;exitDy=0;exitPerimeter=0;entryX=0.5;entryY=1;entryDx=0;entryDy=0;" edge="1" parent="1" source="87q-KHHyrbXiA257jzKi-25" target="87q-KHHyrbXiA257jzKi-20">
          <mxGeometry width="50" height="50" relative="1" as="geometry">
            <mxPoint x="390" y="370" as="sourcePoint" />
            <mxPoint x="440" y="320" as="targetPoint" />
          </mxGeometry>
        </mxCell>
        <mxCell id="87q-KHHyrbXiA257jzKi-28" value="" style="endArrow=classic;html=1;rounded=0;entryX=0.5;entryY=1;entryDx=0;entryDy=0;exitX=0.5;exitY=0;exitDx=0;exitDy=0;exitPerimeter=0;" edge="1" parent="1" source="87q-KHHyrbXiA257jzKi-26" target="87q-KHHyrbXiA257jzKi-20">
          <mxGeometry width="50" height="50" relative="1" as="geometry">
            <mxPoint x="570" y="370" as="sourcePoint" />
            <mxPoint x="620" y="330" as="targetPoint" />
          </mxGeometry>
        </mxCell>
        <mxCell id="87q-KHHyrbXiA257jzKi-31" value="Cassandra" style="shape=cylinder3;whiteSpace=wrap;html=1;boundedLbl=1;backgroundOutline=1;size=15;" vertex="1" parent="1">
          <mxGeometry x="835" y="340" width="90" height="80" as="geometry" />
        </mxCell>
        <mxCell id="87q-KHHyrbXiA257jzKi-33" value="Power BI" style="rounded=0;whiteSpace=wrap;html=1;" vertex="1" parent="1">
          <mxGeometry x="835" y="260" width="120" height="60" as="geometry" />
        </mxCell>
        <mxCell id="87q-KHHyrbXiA257jzKi-34" value="" style="endArrow=classic;html=1;rounded=0;entryX=0;entryY=0.5;entryDx=0;entryDy=0;exitX=1;exitY=0.5;exitDx=0;exitDy=0;" edge="1" parent="1" source="87q-KHHyrbXiA257jzKi-20" target="87q-KHHyrbXiA257jzKi-33">
          <mxGeometry width="50" height="50" relative="1" as="geometry">
            <mxPoint x="540" y="370" as="sourcePoint" />
            <mxPoint x="590" y="320" as="targetPoint" />
          </mxGeometry>
        </mxCell>
        <mxCell id="87q-KHHyrbXiA257jzKi-35" value="" style="endArrow=classic;html=1;rounded=0;exitX=1;exitY=0.5;exitDx=0;exitDy=0;entryX=0;entryY=0.5;entryDx=0;entryDy=0;entryPerimeter=0;" edge="1" parent="1" source="87q-KHHyrbXiA257jzKi-20" target="87q-KHHyrbXiA257jzKi-31">
          <mxGeometry width="50" height="50" relative="1" as="geometry">
            <mxPoint x="540" y="370" as="sourcePoint" />
            <mxPoint x="590" y="320" as="targetPoint" />
          </mxGeometry>
        </mxCell>
      </root>
    </mxGraphModel>
  </diagram>
</mxfile>
